<?xml version="1.0" encoding="UTF-8" standalone="no"?>
<!-- Created with Inkscape (http://www.inkscape.org/) -->

<svg
   width="48"
   height="48"
   viewBox="0 0 12.7 12.7"
   version="1.1"
   id="svg1"
   inkscape:version="1.4.2 (f4327f4, 2025-05-13)"
   sodipodi:docname="logo.svg"
   xmlns:inkscape="http://www.inkscape.org/namespaces/inkscape"
   xmlns:sodipodi="http://sodipodi.sourceforge.net/DTD/sodipodi-0.dtd"
   xmlns="http://www.w3.org/2000/svg"
   xmlns:svg="http://www.w3.org/2000/svg">
  <sodipodi:namedview
     id="namedview1"
     pagecolor="#ffffff"
     bordercolor="#000000"
     borderopacity="0.25"
     inkscape:showpageshadow="2"
     inkscape:pageopacity="0.0"
     inkscape:pagecheckerboard="0"
     inkscape:deskcolor="#d1d1d1"
     inkscape:document-units="mm"
     inkscape:zoom="9.6152237"
     inkscape:cx="23.608395"
     inkscape:cy="25.532427"
     inkscape:window-width="1440"
     inkscape:window-height="785"
     inkscape:window-x="1433"
     inkscape:window-y="-7"
     inkscape:window-maximized="1"
     inkscape:current-layer="layer1" />
  <defs
     id="defs1">
	
	
</defs>
  <g
     inkscape:label="Layer 1"
     inkscape:groupmode="layer"
     id="layer1"
     transform="translate(-0.13758564,0.00859893)">
    <g
       id="g1"
       transform="matrix(0.872964,0,0,0.872964,0.82455048,0.78578757)"
       style="fill:#3cb1c3">
      <path
         fill-rule="evenodd"
         clip-rule="evenodd"
         d="M 4.5845261,7.7602295 H 7.876979 c 0.6535,0 0.98025,0 1.1832731,-0.203023 0.203023,-0.203023 0.203023,-0.529773 0.203023,-1.183273 v -1.73287 c 0,-0.653507 0,-0.980261 -0.203023,-1.183277 C 8.857229,3.2547675 8.530479,3.2547675 7.876979,3.2547675 H 5.1043869 c -0.6535066,0 -0.98026,0 -1.1832761,0.203019 -0.2030196,0.203016 -0.2030196,0.52977 -0.2030196,1.183277 v 3.985601 c 0,-0.478515 0.3879166,-0.866435 0.8664349,-0.866435 z m 3.436004,-2.282464 c 0.2707088,-0.270688 0.2707088,-0.709565 0,-0.980257 -0.2706743,-0.270691 -0.7095757,-0.270691 -0.98025,0 l -0.8961709,0.896165 -0.203023,-0.203017 c -0.2706849,-0.270691 -0.7095619,-0.270691 -0.9802535,0 -0.2706918,0.270688 -0.2706918,0.709579 0,0.980254 l 0.4480821,0.448085 c 0.406053,0.406046 1.0643356,0.406046 1.4703816,0 z"
         fill="#222222"
         id="path1"
         style="fill:#0d6efd;stroke-width:0.346575" />
      <path
         d="M 9.0602521,7.5572065 8.8151896,7.3121435 v 0 z m 0,-4.09942 -0.2450625,0.245063 v 0 z m -1.039722,1.039722 0.2450624,-0.245066 v 0 z m 0,0.980257 -0.2450624,-0.245062 z m -0.98025,-0.980257 -0.2450624,-0.245066 z m -0.8961709,0.896165 -0.2450627,0.245065 0.2450627,0.24507 0.2450625,-0.24507 z m -0.203023,-0.203017 -0.2450593,0.245063 v 0 z m -0.9802535,0 0.2450625,0.245063 v 0 z m 0,0.980254 0.2450625,-0.245063 v 0 z m 0.4480821,0.448085 -0.2450659,0.245063 z m 1.4703816,0 -0.2450623,-0.245062 z m 0.9976826,0.79466 H 4.5845261 v 0.693148 H 7.876979 Z m 0.9382106,-0.101512 c -0.026375,0.02638 -0.073508,0.05902 -0.2238176,0.07923 -0.1602904,0.02156 -0.3778348,0.02228 -0.714393,0.02228 v 0.693148 c 0.3169419,0 0.5895226,7.2e-4 0.8067549,-0.02845 0.2271794,-0.03057 0.4449664,-0.09943 0.6215806,-0.276081 z m 0.1015114,-0.93821 c 0,0.336558 -7.204e-4,0.554102 -0.022283,0.714393 -0.020206,0.150309 -0.052852,0.197443 -0.079227,0.223817 l 0.4901248,0.490125 c 0.1766488,-0.176614 0.2455131,-0.394401 0.2760811,-0.62158 0.029181,-0.217233 0.028453,-0.489813 0.028453,-0.806755 z m 0,-1.73287 v 1.73287 h 0.6931482 v -1.73287 z M 8.8151896,3.7028495 c 0.026375,0.02638 0.059022,0.0735 0.079227,0.223821 0.021557,0.160294 0.022284,0.377842 0.022284,0.714393 h 0.6931475 c 0,-0.316956 7.204e-4,-0.589537 -0.028453,-0.806752 -0.030568,-0.227186 -0.099432,-0.444956 -0.276081,-0.621591 z M 7.876979,3.6013415 c 0.3365582,0 0.5541026,7.2e-4 0.714393,0.02229 0.1503093,0.02021 0.1974433,0.05284 0.2238176,0.07922 L 9.3053145,3.2127235 C 9.1287003,3.0360885 8.9109133,2.9672065 8.6837339,2.9366635 8.4665016,2.9074635 8.1939209,2.9081935 7.876979,2.9081935 Z m -2.7725921,0 H 7.876979 V 2.9081935 H 5.1043869 Z m -0.9382137,0.101508 c 0.026384,-0.02638 0.073498,-0.05901 0.2238208,-0.07922 0.1602941,-0.02155 0.377842,-0.02229 0.7143929,-0.02229 v -0.693149 c -0.3169556,0 -0.5895361,-7.49e-4 -0.8067514,0.02847 -0.227186,0.03054 -0.444956,0.09942 -0.6215909,0.27606 z M 4.064665,4.6410635 c 0,-0.336551 7.204e-4,-0.554099 0.022289,-0.714393 0.020209,-0.150323 0.052839,-0.197437 0.07922,-0.223821 L 3.6760457,3.2127205 c -0.1766349,0.176635 -0.2455162,0.394405 -0.2760599,0.621591 -0.029202,0.217215 -0.028468,0.489796 -0.028468,0.806752 z m 0,3.985601 V 4.6410635 H 3.3715171 v 3.985601 z m 0.5198611,-1.213009 c -0.6699275,0 -1.213009,0.543081 -1.213009,1.213009 H 4.064665 c 0,-0.287102 0.2327486,-0.519861 0.5198611,-0.519861 z m 3.1909416,-2.671084 c 0.1353369,0.135347 0.1353369,0.354784 0,0.490132 l 0.4901248,0.490121 c 0.4060461,-0.406028 0.4060461,-1.064346 0,-1.470382 z m -0.4901252,0 c 0.1353373,-0.135344 0.3547879,-0.135344 0.4901252,0 l 0.4901248,-0.490129 c -0.4060461,-0.406035 -1.0643287,-0.406035 -1.4703748,0 z M 6.3891717,5.6387385 7.2853425,4.7425715 6.7952177,4.2524425 5.8990465,5.1486105 Z m -0.6931448,-0.203019 0.2030196,0.203019 0.4901252,-0.490128 -0.2030231,-0.20302 z m -0.4901317,0 c 0.1353476,-0.135344 0.3547844,-0.135344 0.4901317,0 l 0.4901217,-0.490129 c -0.4060288,-0.406035 -1.0643463,-0.406035 -1.4703817,0 z m 0,0.490128 c -0.1353442,-0.135337 -0.1353442,-0.354781 0,-0.490128 L 4.7157669,4.9455905 c -0.4060358,0.406036 -0.4060358,1.064336 0,1.470382 z m 0.4480854,0.448086 -0.4480854,-0.448086 -0.4901283,0.490125 0.448082,0.448086 z m 0.9802535,0 c -0.2706743,0.270674 -0.7095758,0.270674 -0.9802535,0 l -0.4901317,0.490125 c 0.5413831,0.541383 1.4191269,0.541383 1.9605099,0 z m 1.1412336,-1.14123 -1.1412336,1.14123 0.4901247,0.490125 1.1412337,-1.141234 z M 6.1441092,9.1465255 H 4.5845261 v 0.693148 H 6.1441092 Z M 3.3715171,8.6266645 c 0,0.669927 0.5430815,1.213009 1.213009,1.213009 v -0.693148 c -0.2871125,0 -0.5198611,-0.232759 -0.5198611,-0.519861 z"
         fill="#222222"
         id="path2"
         style="fill:#0d6efd;stroke-width:0.346575" />
      <path
         d="m 9.2632751,9.4930995 h -3.46574"
         stroke="#222222"
         stroke-width="0.693148"
         stroke-linecap="round"
         id="path3"
         style="fill:none;stroke:#0d6efd;stroke-opacity:1" />
    </g>
  </g>
  <g
     inkscape:groupmode="layer"
     id="layer2"
     inkscape:label="Layer 2">
    <path
       d="m 10.861523,9.8302545 c 0,0.7377265 -0.440758,1.3018705 -1.0171343,1.3018705 H 8.8272533 c -0.2034271,0 -0.3390452,0.173583 -0.3390452,0.433958 0,0.260372 0.1356181,0.433956 0.3390452,0.433956 h 1.0171354 c 0.9493253,0 1.6952253,-0.954705 1.6952253,-2.1697845 V 6.7925558 h 0.67809 c 0.203427,0 0.339045,-0.1735829 0.339045,-0.433957 0,-0.2603742 -0.135618,-0.4339569 -0.339045,-0.4339569 h -0.67809 V 2.8869434 c 0,-1.2150795 -0.7459,-2.16978476 -1.6952253,-2.16978476 H 8.8272533 c -0.2034271,0 -0.3390452,0.17358278 -0.3390452,0.43395696 0,0.2603742 0.1356181,0.4339569 0.3390452,0.4339569 h 1.0171354 c 0.5763763,0 1.0171343,0.5641441 1.0171343,1.3018709 z"
       id="path1-4"
       style="fill:#ffcb2f;fill-opacity:1;stroke-width:0.383576" />
    <path
       d="m 0.4893656,6.7938219 h 0.6780903 v 3.0465596 c 0,1.2186245 0.7458993,2.1761135 1.6952257,2.1761135 H 3.879817 c 0.2034271,0 0.3390451,-0.174089 0.3390451,-0.435221 0,-0.261135 -0.135618,-0.435224 -0.3390451,-0.435224 H 2.8626816 c -0.5763768,0 -1.0171354,-0.56579 -1.0171354,-1.3056685 V 2.8768168 c 0,-0.7398788 0.4407586,-1.3056684 1.0171354,-1.3056684 H 3.879817 c 0.2034271,0 0.3390451,-0.1740892 0.3390451,-0.4352228 0,-0.26113369 -0.135618,-0.43522279 -0.3390451,-0.43522279 H 2.8626816 c -0.9493264,0 -1.6952257,0.95749009 -1.6952257,2.17611399 V 5.9233763 H 0.4893656 c -0.2034271,0 -0.3390451,0.1740892 -0.3390451,0.4352228 0,0.2611336 0.135618,0.4352228 0.3390451,0.4352228 z"
       id="path2-5"
       style="fill:#ffc107;fill-opacity:1;stroke:none;stroke-width:0.384136;stroke-opacity:1" />
  </g>
</svg>
